<svg width="125" height="44" viewBox="0 0 125 44" fill="none" xmlns="http://www.w3.org/2000/svg">
<path d="M15.3698 32.1953V6.11995H24.3053V0.682129H0V6.11995H8.91408V32.1953H15.3698Z" fill="#020202"/>
<path d="M24.207 32.1953H30.4489V18.83C30.4489 15.7508 32.1805 13.6324 35.1304 13.6324C37.9735 13.6324 39.4272 15.4669 39.4272 18.4806V32.1953H45.6691V17.1266C45.6691 11.7106 42.7619 8.34749 37.6743 8.34749C34.1899 8.34749 31.6888 10.0072 30.4703 12.9554H30.3421V0.682129H24.207V32.1953Z" fill="#020202"/>
<path d="M46.49 32.1953H52.732V10.4378H46.49V32.1953Z" fill="#020202"/>
<path d="M53.617 32.1953H59.859V18.7645C59.859 15.7289 61.6333 13.6324 64.4336 13.6324C67.2339 13.6324 68.6448 15.3795 68.6448 18.4369V32.1953H74.8868V17.1048C74.8868 11.6233 72.0223 8.34749 66.9347 8.34749C63.4075 8.34749 60.992 10.0509 59.7735 12.9554H59.6452V8.78426H53.617V32.1953Z" fill="#020202"/>
<path d="M82.0352 18.1749H81.9497V0.682129H75.7077V32.1953H81.9497V24.4644L83.5743 22.6736L90.1369 32.1953H97.3195L88.1489 18.83L96.892 8.78426H89.8163L82.0352 18.1749Z" fill="#020202"/>
<path d="M99.8932 32.4573C101.796 32.4573 103.335 30.8849 103.335 28.9413C103.335 26.9758 101.796 25.4253 99.8932 25.4253C97.9693 25.4253 96.4516 26.9758 96.4516 28.9413C96.4516 30.8849 97.9693 32.4573 99.8932 32.4573Z" fill="#020202"/>
<path d="M108.794 32.4573C110.697 32.4573 112.236 30.8849 112.236 28.9413C112.236 26.9758 110.697 25.4253 108.794 25.4253C106.871 25.4253 105.353 26.9758 105.353 28.9413C105.353 30.8849 106.871 32.4573 108.794 32.4573Z" fill="#020202"/>
<path d="M117.696 32.4573C119.598 32.4573 121.137 30.8849 121.137 28.9413C121.137 26.9758 119.598 25.4253 117.696 25.4253C115.772 25.4253 114.254 26.9758 114.254 28.9413C114.254 30.8849 115.772 32.4573 117.696 32.4573Z" fill="#020202"/>
<path fill-rule="evenodd" clip-rule="evenodd" d="M50.023 8.58676C49.7051 8.66963 49.3702 8.71364 49.0228 8.71364C46.8108 8.71364 45.1016 6.92857 45.1016 4.69056C45.1016 2.42591 46.8108 0.66748 49.0228 0.66748C51.2348 0.66748 52.9441 2.42591 52.9441 4.69056C52.9441 5.49338 52.7242 6.23792 52.34 6.86267L52.2732 9.37046L50.023 8.58676Z" fill="#C51111"/>
<path d="M52.2766 9.37036L49.9267 8.54931L51.6144 7.72827L51.9359 7.39986L52.4985 6.57882L52.2766 9.37036Z" fill="#C51111"/>
<path d="M45.2712 41.8765H46.1692V36.8649H47.9854V36.0911H43.451V36.8649H45.2712V41.8765ZM48.5762 41.8765H49.4462V39.3226C49.4462 38.621 49.8432 38.184 50.4806 38.184C51.1181 38.184 51.4188 38.5408 51.4188 39.2624V41.8765H52.2848V39.058C52.2848 38.0196 51.7475 37.4382 50.7733 37.4382C50.1398 37.4382 49.7229 37.7189 49.5104 38.184H49.4462V35.8145H48.5762V41.8765ZM53.501 36.7446C53.7977 36.7446 54.0463 36.5001 54.0463 36.2034C54.0463 35.9027 53.7977 35.6581 53.501 35.6581C53.2003 35.6581 52.9558 35.9027 52.9558 36.2034C52.9558 36.5001 53.2003 36.7446 53.501 36.7446ZM53.064 41.8765H53.93V37.5224H53.064V41.8765ZM54.7453 41.8765H55.6153V39.3226C55.6153 38.621 56.0123 38.184 56.6497 38.184C57.2872 38.184 57.5879 38.5408 57.5879 39.2624V41.8765H58.4539V39.058C58.4539 38.0196 57.9166 37.4382 56.9424 37.4382C56.3089 37.4382 55.892 37.7189 55.6795 38.184H55.6153V37.5224H54.7453V41.8765ZM59.2572 41.8765H60.1272V40.2928L60.5 39.92L61.9995 41.8765H63.0579L61.1215 39.3587L62.9377 37.5224H61.9193L60.1913 39.3587H60.1272V35.8145H59.2572V41.8765ZM65.294 41.8765H67.6714C68.9063 41.8765 69.648 41.259 69.648 40.2447V40.2367C69.648 39.4829 69.1268 38.9297 68.345 38.8455V38.7773C68.9143 38.6811 69.3593 38.1399 69.3593 37.5385V37.5304C69.3593 36.6444 68.7058 36.0911 67.6193 36.0911H65.294V41.8765ZM67.4108 36.8248C68.0764 36.8248 68.4653 37.1416 68.4653 37.6868V37.6948C68.4653 38.2561 68.0523 38.5528 67.2585 38.5528H66.192V36.8248H67.4108ZM67.4389 39.2384C68.2849 39.2384 68.7299 39.5591 68.7299 40.1806V40.1886C68.7299 40.81 68.3009 41.1428 67.491 41.1428H66.192V39.2384H67.4389ZM72.079 41.9607C73.1936 41.9607 73.795 41.3192 73.9393 40.7459L73.9473 40.7098L73.1094 40.7138L73.0934 40.7459C72.9891 40.9704 72.6564 41.247 72.0991 41.247C71.3814 41.247 70.9244 40.7619 70.9083 39.928H73.9955V39.6233C73.9955 38.3163 73.2497 37.4382 72.0349 37.4382C70.8201 37.4382 70.0343 38.3483 70.0343 39.7075V39.7115C70.0343 41.0907 70.8041 41.9607 72.079 41.9607ZM72.0389 38.1519C72.6283 38.1519 73.0653 38.5287 73.1335 39.3065H70.9204C70.9965 38.5568 71.4456 38.1519 72.0389 38.1519ZM74.8869 41.8765H75.7529V38.208H76.7112V37.5224H75.7449V37.1055C75.7449 36.6645 75.9334 36.4319 76.4145 36.4319C76.5508 36.4319 76.6671 36.4399 76.7472 36.452V35.8145C76.5989 35.7904 76.4305 35.7744 76.2341 35.7744C75.328 35.7744 74.8869 36.1994 74.8869 37.0654V37.5224H74.1693V38.208H74.8869V41.8765ZM78.9137 41.9607C80.1886 41.9607 80.9704 41.1067 80.9704 39.7035V39.6954C80.9704 38.2922 80.1846 37.4382 78.9137 37.4382C77.6387 37.4382 76.8529 38.2962 76.8529 39.6954V39.7035C76.8529 41.1067 77.6347 41.9607 78.9137 41.9607ZM78.9137 41.235C78.1639 41.235 77.743 40.6697 77.743 39.7035V39.6954C77.743 38.7292 78.1639 38.1639 78.9137 38.1639C79.6594 38.1639 80.0844 38.7292 80.0844 39.6954V39.7035C80.0844 40.6657 79.6594 41.235 78.9137 41.235ZM81.5572 41.8765H82.4272V39.2745C82.4272 38.645 82.8802 38.2361 83.5458 38.2361C83.7102 38.2361 83.8585 38.2561 84.0149 38.2882V37.4863C83.9267 37.4663 83.7743 37.4463 83.634 37.4463C83.0526 37.4463 82.6477 37.7189 82.4914 38.1799H82.4272V37.5224H81.5572V41.8765ZM86.1091 41.9607C87.2237 41.9607 87.8251 41.3192 87.9694 40.7459L87.9774 40.7098L87.1395 40.7138L87.1235 40.7459C87.0192 40.9704 86.6865 41.247 86.1292 41.247C85.4115 41.247 84.9545 40.7619 84.9384 39.928H88.0255V39.6233C88.0255 38.3163 87.2798 37.4382 86.065 37.4382C84.8502 37.4382 84.0644 38.3483 84.0644 39.7075V39.7115C84.0644 41.0907 84.8342 41.9607 86.1091 41.9607ZM86.069 38.1519C86.6584 38.1519 87.0954 38.5287 87.1636 39.3065H84.9505C85.0266 38.5568 85.4757 38.1519 86.069 38.1519ZM92.0938 41.8765H92.9919V39.507L95.0326 36.0911H94.0343L92.5789 38.6129H92.5108L91.0554 36.0911H90.0571L92.0938 39.507V41.8765ZM96.6137 41.9607C97.8886 41.9607 98.6704 41.1067 98.6704 39.7035V39.6954C98.6704 38.2922 97.8846 37.4382 96.6137 37.4382C95.3387 37.4382 94.5529 38.2962 94.5529 39.6954V39.7035C94.5529 41.1067 95.3347 41.9607 96.6137 41.9607ZM96.6137 41.235C95.8639 41.235 95.443 40.6697 95.443 39.7035V39.6954C95.443 38.7292 95.8639 38.1639 96.6137 38.1639C97.3594 38.1639 97.7844 38.7292 97.7844 39.6954V39.7035C97.7844 40.6657 97.3594 41.235 96.6137 41.235ZM100.709 41.9607C101.342 41.9607 101.783 41.688 101.991 41.2189H102.06V41.8765H102.926V37.5224H102.06V40.0763C102.06 40.7779 101.687 41.2149 100.989 41.2149C100.352 41.2149 100.087 40.8581 100.087 40.1365V37.5224H99.2171V40.3409C99.2171 41.3713 99.7263 41.9607 100.709 41.9607ZM107.579 42.0168C108.926 42.0168 109.788 41.3272 109.788 40.2206V40.2166C109.788 39.3587 109.291 38.8695 108.076 38.6089L107.447 38.4686C106.697 38.3082 106.393 38.0276 106.393 37.5986V37.5946C106.393 37.0493 106.894 36.7326 107.571 36.7326C108.273 36.7286 108.726 37.0734 108.802 37.5465L108.81 37.5986H109.68L109.676 37.5425C109.612 36.6444 108.81 35.9508 107.583 35.9508C106.356 35.9508 105.49 36.6404 105.486 37.6387V37.6427C105.486 38.4967 105.992 39.0419 107.166 39.2905L107.8 39.4268C108.566 39.5912 108.878 39.8799 108.878 40.3249V40.3289C108.878 40.8661 108.353 41.235 107.615 41.235C106.842 41.235 106.284 40.8982 106.236 40.373L106.232 40.3289H105.35L105.354 40.381C105.434 41.3553 106.272 42.0168 107.579 42.0168ZM110.459 41.8765H111.329V35.8145H110.459V41.8765ZM113.367 41.9486C113.945 41.9486 114.402 41.7001 114.658 41.259H114.727V41.8765H115.589V38.8976C115.589 37.9835 114.971 37.4382 113.877 37.4382C112.886 37.4382 112.201 37.9153 112.097 38.629L112.093 38.657H112.93L112.934 38.641C113.039 38.3323 113.355 38.1559 113.837 38.1559C114.426 38.1559 114.727 38.4205 114.727 38.8976V39.2825L113.548 39.3506C112.509 39.4148 111.924 39.8678 111.924 40.6456V40.6536C111.924 41.4435 112.538 41.9486 113.367 41.9486ZM112.79 40.6176V40.6095C112.79 40.2166 113.063 40.0001 113.664 39.9641L114.727 39.8959V40.2688C114.727 40.8301 114.249 41.255 113.6 41.255C113.131 41.255 112.79 41.0185 112.79 40.6176ZM116.364 41.8765H117.234V39.2023C117.234 38.633 117.623 38.184 118.148 38.184C118.661 38.184 118.986 38.4967 118.986 38.9938V41.8765H119.852V39.1221C119.852 38.5969 120.217 38.184 120.77 38.184C121.339 38.184 121.612 38.4806 121.612 39.082V41.8765H122.478V38.8735C122.478 37.9675 121.965 37.4382 121.087 37.4382C120.481 37.4382 119.98 37.7469 119.76 38.216H119.691C119.499 37.7469 119.078 37.4382 118.485 37.4382C117.915 37.4382 117.49 37.7149 117.298 38.192H117.234V37.5224H116.364V41.8765Z" fill="#020202"/>
</svg>
